<svg xmlns="http://www.w3.org/2000/svg" width="128" height="220" viewBox="0 0 128 220">
  <defs>
    <linearGradient id="lf" x1="0" y1="0" x2="1" y2="0.4">
      <stop offset="0%" stop-color="#a8cce8"/>
      <stop offset="40%" stop-color="#88b4d8"/>
      <stop offset="100%" stop-color="#6898b8"/>
    </linearGradient>
    <linearGradient id="rf" x1="1" y1="0" x2="0" y2="0.4">
      <stop offset="0%" stop-color="#5880a0"/>
      <stop offset="40%" stop-color="#487090"/>
      <stop offset="100%" stop-color="#386080"/>
    </linearGradient>
    <linearGradient id="roof" x1="0" y1="0" x2="1" y2="1">
      <stop offset="0%" stop-color="#d0dce8"/>
      <stop offset="100%" stop-color="#a8bcd0"/>
    </linearGradient>
    <linearGradient id="wg" x1="0" y1="0" x2="0" y2="1">
      <stop offset="0%" stop-color="rgba(210,240,255,0.7)"/>
      <stop offset="100%" stop-color="rgba(120,180,220,0.25)"/>
    </linearGradient>
    <linearGradient id="acc" x1="0" y1="0" x2="0" y2="1">
      <stop offset="0%" stop-color="#e8a040"/>
      <stop offset="100%" stop-color="#c07828"/>
    </linearGradient>
  </defs>

  <!-- LEFT FACE: points (cx-footHW, cy) (cx, cy+footHH) (cx, cy+footHH-h) (cx-footHW, cy-h) -->
  <!-- = (0, 188) (64, 220) (64, 100) (0, 68) -->
  <polygon points="0,188 64,220 64,100 0,68" fill="url(#lf)" stroke="#5890a8" stroke-width="0.8"/>

  <!-- Left face floor lines -->
  <line x1="0" y1="80" x2="64" y2="112" stroke="#5a8098" stroke-width="0.5"/>
  <line x1="0" y1="96" x2="64" y2="128" stroke="#5a8098" stroke-width="0.5"/>
  <line x1="0" y1="112" x2="64" y2="144" stroke="#5a8098" stroke-width="0.5"/>
  <line x1="0" y1="128" x2="64" y2="160" stroke="#5a8098" stroke-width="0.5"/>
  <line x1="0" y1="144" x2="64" y2="176" stroke="#5a8098" stroke-width="0.5"/>
  <line x1="0" y1="160" x2="64" y2="192" stroke="#5a8098" stroke-width="0.5"/>
  <line x1="0" y1="176" x2="64" y2="208" stroke="#5a8098" stroke-width="0.5"/>

  <!-- Left face vertical mullions -->
  <line x1="16" y1="72" x2="16" y2="192" stroke="#5a8098" stroke-width="0.4"/>
  <line x1="32" y1="76" x2="32" y2="196" stroke="#5a8098" stroke-width="0.4"/>
  <line x1="48" y1="80" x2="48" y2="204" stroke="#5a8098" stroke-width="0.4"/>

  <!-- Left face windows -->
  <rect x="4" y="82" width="8" height="10" rx="0.5" fill="url(#wg)" opacity="0.6"/>
  <rect x="20" y="78" width="8" height="10" rx="0.5" fill="url(#wg)" opacity="0.5"/>
  <rect x="36" y="82" width="8" height="10" rx="0.5" fill="url(#wg)" opacity="0.7"/>
  <rect x="52" y="86" width="8" height="10" rx="0.5" fill="url(#wg)" opacity="0.4"/>
  <rect x="4" y="98" width="8" height="10" rx="0.5" fill="url(#wg)" opacity="0.5"/>
  <rect x="20" y="94" width="8" height="10" rx="0.5" fill="url(#wg)" opacity="0.7"/>
  <rect x="36" y="98" width="8" height="10" rx="0.5" fill="url(#wg)" opacity="0.4"/>
  <rect x="52" y="102" width="8" height="10" rx="0.5" fill="url(#wg)" opacity="0.6"/>
  <rect x="4" y="114" width="8" height="10" rx="0.5" fill="url(#wg)" opacity="0.7"/>
  <rect x="20" y="110" width="8" height="10" rx="0.5" fill="url(#wg)" opacity="0.4"/>
  <rect x="36" y="114" width="8" height="10" rx="0.5" fill="url(#wg)" opacity="0.6"/>
  <rect x="52" y="118" width="8" height="10" rx="0.5" fill="url(#wg)" opacity="0.5"/>
  <rect x="4" y="130" width="8" height="10" rx="0.5" fill="url(#wg)" opacity="0.4"/>
  <rect x="20" y="126" width="8" height="10" rx="0.5" fill="url(#wg)" opacity="0.6"/>
  <rect x="36" y="130" width="8" height="10" rx="0.5" fill="url(#wg)" opacity="0.5"/>
  <rect x="52" y="134" width="8" height="10" rx="0.5" fill="url(#wg)" opacity="0.7"/>
  <rect x="4" y="146" width="8" height="10" rx="0.5" fill="url(#wg)" opacity="0.6"/>
  <rect x="20" y="142" width="8" height="10" rx="0.5" fill="url(#wg)" opacity="0.5"/>
  <rect x="36" y="146" width="8" height="10" rx="0.5" fill="url(#wg)" opacity="0.4"/>
  <rect x="52" y="150" width="8" height="10" rx="0.5" fill="url(#wg)" opacity="0.7"/>
  <rect x="4" y="162" width="8" height="10" rx="0.5" fill="url(#wg)" opacity="0.5"/>
  <rect x="20" y="158" width="8" height="10" rx="0.5" fill="url(#wg)" opacity="0.7"/>
  <rect x="36" y="162" width="8" height="10" rx="0.5" fill="url(#wg)" opacity="0.6"/>
  <rect x="52" y="166" width="8" height="10" rx="0.5" fill="url(#wg)" opacity="0.4"/>

  <!-- Left face reflection strip -->
  <polygon points="1,72 10,76 10,200 1,196" fill="rgba(255,255,255,0.06)"/>

  <!-- RIGHT FACE: (128, 188) (64, 220) (64, 100) (128, 68) -->
  <polygon points="128,188 64,220 64,100 128,68" fill="url(#rf)" stroke="#406888" stroke-width="0.8"/>

  <!-- Right face floor lines -->
  <line x1="128" y1="80" x2="64" y2="112" stroke="#406878" stroke-width="0.5"/>
  <line x1="128" y1="96" x2="64" y2="128" stroke="#406878" stroke-width="0.5"/>
  <line x1="128" y1="112" x2="64" y2="144" stroke="#406878" stroke-width="0.5"/>
  <line x1="128" y1="128" x2="64" y2="160" stroke="#406878" stroke-width="0.5"/>
  <line x1="128" y1="144" x2="64" y2="176" stroke="#406878" stroke-width="0.5"/>
  <line x1="128" y1="160" x2="64" y2="192" stroke="#406878" stroke-width="0.5"/>
  <line x1="128" y1="176" x2="64" y2="208" stroke="#406878" stroke-width="0.5"/>

  <!-- Right face vertical mullions -->
  <line x1="80" y1="80" x2="80" y2="204" stroke="#406878" stroke-width="0.4"/>
  <line x1="96" y1="76" x2="96" y2="196" stroke="#406878" stroke-width="0.4"/>
  <line x1="112" y1="72" x2="112" y2="192" stroke="#406878" stroke-width="0.4"/>

  <!-- Right face windows -->
  <rect x="68" y="86" width="8" height="10" rx="0.5" fill="url(#wg)" opacity="0.4"/>
  <rect x="84" y="82" width="8" height="10" rx="0.5" fill="url(#wg)" opacity="0.6"/>
  <rect x="100" y="78" width="8" height="10" rx="0.5" fill="url(#wg)" opacity="0.5"/>
  <rect x="116" y="74" width="8" height="10" rx="0.5" fill="url(#wg)" opacity="0.3"/>
  <rect x="68" y="102" width="8" height="10" rx="0.5" fill="url(#wg)" opacity="0.6"/>
  <rect x="84" y="98" width="8" height="10" rx="0.5" fill="url(#wg)" opacity="0.4"/>
  <rect x="100" y="94" width="8" height="10" rx="0.5" fill="url(#wg)" opacity="0.5"/>
  <rect x="116" y="90" width="8" height="10" rx="0.5" fill="url(#wg)" opacity="0.7"/>
  <rect x="68" y="118" width="8" height="10" rx="0.5" fill="url(#wg)" opacity="0.5"/>
  <rect x="84" y="114" width="8" height="10" rx="0.5" fill="url(#wg)" opacity="0.7"/>
  <rect x="100" y="110" width="8" height="10" rx="0.5" fill="url(#wg)" opacity="0.4"/>
  <rect x="116" y="106" width="8" height="10" rx="0.5" fill="url(#wg)" opacity="0.6"/>
  <rect x="68" y="134" width="8" height="10" rx="0.5" fill="url(#wg)" opacity="0.7"/>
  <rect x="84" y="130" width="8" height="10" rx="0.5" fill="url(#wg)" opacity="0.5"/>
  <rect x="100" y="126" width="8" height="10" rx="0.5" fill="url(#wg)" opacity="0.6"/>
  <rect x="116" y="122" width="8" height="10" rx="0.5" fill="url(#wg)" opacity="0.4"/>
  <rect x="68" y="150" width="8" height="10" rx="0.5" fill="url(#wg)" opacity="0.4"/>
  <rect x="84" y="146" width="8" height="10" rx="0.5" fill="url(#wg)" opacity="0.6"/>
  <rect x="100" y="142" width="8" height="10" rx="0.5" fill="url(#wg)" opacity="0.7"/>
  <rect x="116" y="138" width="8" height="10" rx="0.5" fill="url(#wg)" opacity="0.5"/>
  <rect x="68" y="166" width="8" height="10" rx="0.5" fill="url(#wg)" opacity="0.6"/>
  <rect x="84" y="162" width="8" height="10" rx="0.5" fill="url(#wg)" opacity="0.4"/>
  <rect x="100" y="158" width="8" height="10" rx="0.5" fill="url(#wg)" opacity="0.5"/>
  <rect x="116" y="154" width="8" height="10" rx="0.5" fill="url(#wg)" opacity="0.7"/>

  <!-- TOP FACE (roof): (64, 36) (128, 68) (64, 100) (0, 68) -->
  <polygon points="64,36 128,68 64,100 0,68" fill="url(#roof)" stroke="#8098a8" stroke-width="0.5"/>

  <!-- Rooftop details -->
  <rect x="48" y="58" width="10" height="6" rx="1" fill="#708090" stroke="#5a6a78" stroke-width="0.4"/>
  <rect x="70" y="62" width="8" height="5" rx="1" fill="#607888" stroke="#506878" stroke-width="0.4"/>
  <rect x="36" y="72" width="6" height="4" rx="1" fill="#687888" stroke="#506878" stroke-width="0.3"/>

  <!-- Helipad -->
  <ellipse cx="64" cy="80" rx="14" ry="7" fill="none" stroke="#e8e8e8" stroke-width="0.8" stroke-dasharray="3,2"/>
  <text x="64" y="82" text-anchor="middle" font-size="7" fill="#ddd" font-family="sans-serif" font-weight="bold">H</text>

  <!-- Antenna -->
  <line x1="64" y1="36" x2="64" y2="14" stroke="#8898a8" stroke-width="1.5" stroke-linecap="round"/>
  <circle cx="64" cy="13" r="2" fill="#e44" stroke="#c33" stroke-width="0.5"/>
  <line x1="58" y1="22" x2="70" y2="22" stroke="#8898a8" stroke-width="0.8"/>

  <!-- Gold accent bands -->
  <line x1="0" y1="72" x2="64" y2="104" stroke="url(#acc)" stroke-width="1.8"/>
  <line x1="128" y1="72" x2="64" y2="104" stroke="url(#acc)" stroke-width="1.4"/>

  <!-- Roof edge highlights -->
  <line x1="0" y1="68" x2="64" y2="36" stroke="#c0d4e4" stroke-width="1.2"/>
  <line x1="64" y1="36" x2="128" y2="68" stroke="#a0b8c8" stroke-width="1.0"/>

  <!-- Glass lobby entrance (left face bottom) -->
  <rect x="20" y="196" width="14" height="18" rx="1.5" fill="#1e3040" stroke="#2a4050" stroke-width="0.6"/>
  <line x1="27" y1="196" x2="27" y2="214" stroke="#3a5060" stroke-width="0.5"/>
  <polygon points="18,193 36,200 36,196 18,189" fill="#c88028" opacity="0.7"/>
</svg>
