<svg xmlns="http://www.w3.org/2000/svg" width="128" height="260" viewBox="0 0 128 260">
  <defs>
    <linearGradient id="lf" x1="0" y1="0" x2="1" y2="0.3">
      <stop offset="0%" stop-color="#7cc0d8"/>
      <stop offset="35%" stop-color="#5a9cbc"/>
      <stop offset="100%" stop-color="#3c7c9c"/>
    </linearGradient>
    <linearGradient id="rf" x1="1" y1="0" x2="0" y2="0.3">
      <stop offset="0%" stop-color="#2c6880"/>
      <stop offset="40%" stop-color="#225870"/>
      <stop offset="100%" stop-color="#184860"/>
    </linearGradient>
    <linearGradient id="rg" x1="0" y1="0" x2="1" y2="1">
      <stop offset="0%" stop-color="#d4e4f0"/>
      <stop offset="100%" stop-color="#a8c4d8"/>
    </linearGradient>
    <linearGradient id="wg" x1="0" y1="0" x2="0" y2="1">
      <stop offset="0%" stop-color="rgba(200,240,255,0.7)"/>
      <stop offset="100%" stop-color="rgba(100,180,220,0.25)"/>
    </linearGradient>
    <linearGradient id="acc" x1="0" y1="0" x2="0" y2="1">
      <stop offset="0%" stop-color="#f0c860"/>
      <stop offset="100%" stop-color="#c89830"/>
    </linearGradient>
  </defs>

  <!-- LEFT FACE -->
  <polygon points="0,228 64,260 64,100 0,68" fill="url(#lf)" stroke="#3888a0" stroke-width="0.8"/>

  <!-- Left face floor lines -->
  <line x1="0" y1="80" x2="64" y2="112" stroke="#4a90a8" stroke-width="0.5"/>
  <line x1="0" y1="92" x2="64" y2="124" stroke="#4a90a8" stroke-width="0.5"/>
  <line x1="0" y1="104" x2="64" y2="136" stroke="#4a90a8" stroke-width="0.5"/>
  <line x1="0" y1="116" x2="64" y2="148" stroke="#4a90a8" stroke-width="0.5"/>
  <line x1="0" y1="128" x2="64" y2="160" stroke="#4a90a8" stroke-width="0.5"/>
  <line x1="0" y1="140" x2="64" y2="172" stroke="#4a90a8" stroke-width="0.5"/>
  <line x1="0" y1="152" x2="64" y2="184" stroke="#4a90a8" stroke-width="0.5"/>
  <line x1="0" y1="164" x2="64" y2="196" stroke="#4a90a8" stroke-width="0.5"/>
  <line x1="0" y1="176" x2="64" y2="208" stroke="#4a90a8" stroke-width="0.5"/>
  <line x1="0" y1="188" x2="64" y2="220" stroke="#4a90a8" stroke-width="0.5"/>
  <line x1="0" y1="200" x2="64" y2="232" stroke="#4a90a8" stroke-width="0.5"/>
  <line x1="0" y1="212" x2="64" y2="244" stroke="#4a90a8" stroke-width="0.5"/>

  <!-- Left face vertical mullions -->
  <line x1="16" y1="76" x2="16" y2="236" stroke="#4a90a8" stroke-width="0.4"/>
  <line x1="32" y1="84" x2="32" y2="244" stroke="#4a90a8" stroke-width="0.4"/>
  <line x1="48" y1="92" x2="48" y2="252" stroke="#4a90a8" stroke-width="0.4"/>

  <!-- Left face windows -->
  <rect x="4" y="82" width="8" height="8" rx="0.5" fill="url(#wg)" opacity="0.6"/>
  <rect x="20" y="78" width="8" height="8" rx="0.5" fill="url(#wg)" opacity="0.5"/>
  <rect x="36" y="86" width="8" height="8" rx="0.5" fill="url(#wg)" opacity="0.7"/>
  <rect x="52" y="90" width="8" height="8" rx="0.5" fill="url(#wg)" opacity="0.4"/>
  <rect x="4" y="106" width="8" height="8" rx="0.5" fill="url(#wg)" opacity="0.5"/>
  <rect x="20" y="102" width="8" height="8" rx="0.5" fill="url(#wg)" opacity="0.7"/>
  <rect x="36" y="110" width="8" height="8" rx="0.5" fill="url(#wg)" opacity="0.4"/>
  <rect x="52" y="114" width="8" height="8" rx="0.5" fill="url(#wg)" opacity="0.6"/>
  <rect x="4" y="130" width="8" height="8" rx="0.5" fill="url(#wg)" opacity="0.7"/>
  <rect x="20" y="126" width="8" height="8" rx="0.5" fill="url(#wg)" opacity="0.4"/>
  <rect x="36" y="134" width="8" height="8" rx="0.5" fill="url(#wg)" opacity="0.6"/>
  <rect x="52" y="138" width="8" height="8" rx="0.5" fill="url(#wg)" opacity="0.5"/>
  <rect x="4" y="154" width="8" height="8" rx="0.5" fill="url(#wg)" opacity="0.4"/>
  <rect x="20" y="150" width="8" height="8" rx="0.5" fill="url(#wg)" opacity="0.6"/>
  <rect x="36" y="158" width="8" height="8" rx="0.5" fill="url(#wg)" opacity="0.5"/>
  <rect x="52" y="162" width="8" height="8" rx="0.5" fill="url(#wg)" opacity="0.7"/>
  <rect x="4" y="178" width="8" height="8" rx="0.5" fill="url(#wg)" opacity="0.6"/>
  <rect x="20" y="174" width="8" height="8" rx="0.5" fill="url(#wg)" opacity="0.5"/>
  <rect x="36" y="182" width="8" height="8" rx="0.5" fill="url(#wg)" opacity="0.7"/>
  <rect x="52" y="186" width="8" height="8" rx="0.5" fill="url(#wg)" opacity="0.4"/>
  <rect x="4" y="202" width="8" height="8" rx="0.5" fill="url(#wg)" opacity="0.5"/>
  <rect x="20" y="198" width="8" height="8" rx="0.5" fill="url(#wg)" opacity="0.7"/>
  <rect x="36" y="206" width="8" height="8" rx="0.5" fill="url(#wg)" opacity="0.4"/>
  <rect x="52" y="210" width="8" height="8" rx="0.5" fill="url(#wg)" opacity="0.6"/>

  <!-- Left face reflection strip -->
  <polygon points="1,72 10,76 10,244 1,240" fill="rgba(255,255,255,0.06)"/>

  <!-- RIGHT FACE -->
  <polygon points="128,228 64,260 64,100 128,68" fill="url(#rf)" stroke="#1e5068" stroke-width="0.8"/>

  <!-- Right face floor lines -->
  <line x1="128" y1="80" x2="64" y2="112" stroke="#285868" stroke-width="0.5"/>
  <line x1="128" y1="92" x2="64" y2="124" stroke="#285868" stroke-width="0.5"/>
  <line x1="128" y1="104" x2="64" y2="136" stroke="#285868" stroke-width="0.5"/>
  <line x1="128" y1="116" x2="64" y2="148" stroke="#285868" stroke-width="0.5"/>
  <line x1="128" y1="128" x2="64" y2="160" stroke="#285868" stroke-width="0.5"/>
  <line x1="128" y1="140" x2="64" y2="172" stroke="#285868" stroke-width="0.5"/>
  <line x1="128" y1="152" x2="64" y2="184" stroke="#285868" stroke-width="0.5"/>
  <line x1="128" y1="164" x2="64" y2="196" stroke="#285868" stroke-width="0.5"/>
  <line x1="128" y1="176" x2="64" y2="208" stroke="#285868" stroke-width="0.5"/>
  <line x1="128" y1="188" x2="64" y2="220" stroke="#285868" stroke-width="0.5"/>
  <line x1="128" y1="200" x2="64" y2="232" stroke="#285868" stroke-width="0.5"/>
  <line x1="128" y1="212" x2="64" y2="244" stroke="#285868" stroke-width="0.5"/>

  <!-- Right face vertical mullions -->
  <line x1="80" y1="92" x2="80" y2="252" stroke="#285868" stroke-width="0.4"/>
  <line x1="96" y1="84" x2="96" y2="244" stroke="#285868" stroke-width="0.4"/>
  <line x1="112" y1="76" x2="112" y2="236" stroke="#285868" stroke-width="0.4"/>

  <!-- Right face windows -->
  <rect x="68" y="90" width="8" height="8" rx="0.5" fill="url(#wg)" opacity="0.35"/>
  <rect x="84" y="86" width="8" height="8" rx="0.5" fill="url(#wg)" opacity="0.5"/>
  <rect x="100" y="82" width="8" height="8" rx="0.5" fill="url(#wg)" opacity="0.4"/>
  <rect x="116" y="78" width="8" height="8" rx="0.5" fill="url(#wg)" opacity="0.3"/>
  <rect x="68" y="114" width="8" height="8" rx="0.5" fill="url(#wg)" opacity="0.5"/>
  <rect x="84" y="110" width="8" height="8" rx="0.5" fill="url(#wg)" opacity="0.35"/>
  <rect x="100" y="106" width="8" height="8" rx="0.5" fill="url(#wg)" opacity="0.5"/>
  <rect x="116" y="102" width="8" height="8" rx="0.5" fill="url(#wg)" opacity="0.4"/>
  <rect x="68" y="138" width="8" height="8" rx="0.5" fill="url(#wg)" opacity="0.4"/>
  <rect x="84" y="134" width="8" height="8" rx="0.5" fill="url(#wg)" opacity="0.5"/>
  <rect x="100" y="130" width="8" height="8" rx="0.5" fill="url(#wg)" opacity="0.35"/>
  <rect x="116" y="126" width="8" height="8" rx="0.5" fill="url(#wg)" opacity="0.5"/>
  <rect x="68" y="162" width="8" height="8" rx="0.5" fill="url(#wg)" opacity="0.5"/>
  <rect x="84" y="158" width="8" height="8" rx="0.5" fill="url(#wg)" opacity="0.4"/>
  <rect x="100" y="154" width="8" height="8" rx="0.5" fill="url(#wg)" opacity="0.5"/>
  <rect x="116" y="150" width="8" height="8" rx="0.5" fill="url(#wg)" opacity="0.35"/>
  <rect x="68" y="186" width="8" height="8" rx="0.5" fill="url(#wg)" opacity="0.35"/>
  <rect x="84" y="182" width="8" height="8" rx="0.5" fill="url(#wg)" opacity="0.5"/>
  <rect x="100" y="178" width="8" height="8" rx="0.5" fill="url(#wg)" opacity="0.4"/>
  <rect x="116" y="174" width="8" height="8" rx="0.5" fill="url(#wg)" opacity="0.5"/>
  <rect x="68" y="210" width="8" height="8" rx="0.5" fill="url(#wg)" opacity="0.4"/>
  <rect x="84" y="206" width="8" height="8" rx="0.5" fill="url(#wg)" opacity="0.35"/>
  <rect x="100" y="202" width="8" height="8" rx="0.5" fill="url(#wg)" opacity="0.5"/>
  <rect x="116" y="198" width="8" height="8" rx="0.5" fill="url(#wg)" opacity="0.4"/>

  <!-- TOP FACE (roof) -->
  <polygon points="64,36 128,68 64,100 0,68" fill="url(#rg)" stroke="#8098a8" stroke-width="0.5"/>

  <!-- Rooftop AC units -->
  <rect x="44" y="58" width="10" height="6" rx="1" fill="#708090" stroke="#5a6a78" stroke-width="0.4"/>
  <rect x="74" y="62" width="8" height="5" rx="1" fill="#607888" stroke="#506878" stroke-width="0.4"/>
  <rect x="30" y="72" width="6" height="4" rx="1" fill="#687888" stroke="#506878" stroke-width="0.3"/>
  <rect x="88" y="72" width="7" height="4" rx="1" fill="#607080" stroke="#506070" stroke-width="0.3"/>

  <!-- Helipad -->
  <ellipse cx="64" cy="82" rx="14" ry="7" fill="none" stroke="#e8e8e8" stroke-width="0.8" stroke-dasharray="3,2"/>
  <text x="64" y="84.5" text-anchor="middle" font-size="7" fill="#ddd" font-family="sans-serif" font-weight="bold">H</text>

  <!-- Gold accent bands -->
  <line x1="0" y1="72" x2="64" y2="104" stroke="url(#acc)" stroke-width="2"/>
  <line x1="128" y1="72" x2="64" y2="104" stroke="url(#acc)" stroke-width="1.6"/>
  <!-- Mid-height accent -->
  <line x1="0" y1="148" x2="64" y2="180" stroke="url(#acc)" stroke-width="1.2" opacity="0.5"/>
  <line x1="128" y1="148" x2="64" y2="180" stroke="url(#acc)" stroke-width="1" opacity="0.5"/>

  <!-- Antenna / spire -->
  <line x1="64" y1="36" x2="64" y2="8" stroke="#90a8b8" stroke-width="2" stroke-linecap="round"/>
  <circle cx="64" cy="7" r="2.5" fill="#e44" stroke="#c33" stroke-width="0.5"/>
  <line x1="58" y1="18" x2="70" y2="18" stroke="#90a8b8" stroke-width="0.8"/>
  <line x1="60" y1="26" x2="68" y2="26" stroke="#90a8b8" stroke-width="0.6"/>

  <!-- Roof edge highlights -->
  <line x1="0" y1="68" x2="64" y2="36" stroke="#c0d8e8" stroke-width="1.2"/>
  <line x1="64" y1="36" x2="128" y2="68" stroke="#a0c0d0" stroke-width="1"/>

  <!-- Glass lobby entrance (left face bottom) -->
  <rect x="22" y="240" width="14" height="16" rx="1.5" fill="#1a3040" stroke="#2a4050" stroke-width="0.6"/>
  <line x1="29" y1="240" x2="29" y2="256" stroke="#3a5060" stroke-width="0.5"/>
  <polygon points="20,237 38,244 38,240 20,233" fill="#c89830" opacity="0.7"/>
</svg>
